Coordinates
nRows=4
nColumns=38

# SIMM Motion File Header:
name Coordinates
datacolumns 38
datarows 4
otherdata 1
range 1.69520000000000000000 1.69819999999999990000

Units are S.I. units (second, meters, Newtons, ...)
Angles are in degrees.

endheader
time	pelvis_tilt	pelvis_list	pelvis_rotation	pelvis_tx	pelvis_ty	pelvis_tz	hip_flexion_r	hip_adduction_r	hip_rotation_r	knee_angle_r	ankle_angle_r	subtalar_angle_r	mtp_angle_r	hip_flexion_l	hip_adduction_l	hip_rotation_l	knee_angle_l	ankle_angle_l	subtalar_angle_l	mtp_angle_l	lumbar_extension	lumbar_bending	lumbar_rotation	arm_flex_r	arm_add_r	arm_rot_r	elbow_flex_r	pro_sup_r	wrist_flex_r	wrist_dev_r	arm_flex_l	arm_add_l	arm_rot_l	elbow_flex_l	pro_sup_l	wrist_flex_l	wrist_dev_l
      1.69520000000000000000	     -2.73807623416021780000	      1.70334443505015140000	     -1.18323930220520370000	      0.76029609264558107000	      0.98680307790854549000	     -0.35705120830025883000	    -18.77191019054393500000	      0.98602397173652423000	     -0.26316747245176486000	    -58.65901133179987400000	    -18.18914565982286300000	      0.00000000000000095120	      0.00000000000000954495	     29.51773005864104200000	      3.24834886053330950000	     -1.70494022450916760000	    -13.92636257566304200000	      1.38556757222819420000	     -0.00000000000002973726	     -0.00000000000000800205	    -10.16105169670479200000	     -4.65884564674415190000	      8.91287673875658370000	     -0.57611733274898824000	    -29.98300773287920900000	     20.94653660765336400000	    127.06804038645302000000	     77.52423283863102200000	      0.00000000000002156200	      0.00000000000000518755	    -52.78930797946461700000	    -30.45066565669673900000	    -24.89022113372450900000	    129.85790017987864000000	     85.15394173280564900000	      0.00000000000002213680	     -0.00000000000000338090
      1.69619999999999990000	     -2.64613623905207170000	      1.67543000498486120000	     -1.08557453753271220000	      0.76036327677110604000	      0.98644891699074044000	     -0.35704946853702063000	    -18.69533586048896400000	      1.06889513841059450000	     -0.28302475601523064000	    -59.38828357975691600000	    -18.12038275089941000000	      0.00000000000000098473	      0.00000000000000949954	     29.34663011045648800000	      3.25422935611512850000	     -1.74232411660086630000	    -13.82170722686926600000	      1.21980360455088600000	     -0.00000000000002987396	     -0.00000000000000802476	    -10.28559456140615300000	     -4.65561076617768330000	      8.77935097436614600000	     -0.69184494238713745000	    -29.99426047350205600000	     20.95060465058387000000	    126.92026980869110000000	     77.41727690382083400000	      0.00000000000002172680	      0.00000000000000522496	    -52.67317879969806400000	    -30.58514294353150100000	    -25.03152363319259200000	    129.93986619292741000000	     84.99907734519450700000	      0.00000000000002223124	     -0.00000000000000340192
      1.69720000000000000000	     -2.55330129002082100000	      1.65009084340074290000	     -0.98689549756991224000	      0.76042805636645361000	      0.98608749659986783000	     -0.35705116670533416000	    -18.61760957762068000000	      1.14808997546562510000	     -0.30871487049927537000	    -60.11798069031827700000	    -18.04953340372914600000	      0.00000000000000101922	      0.00000000000000945510	     29.17767380477028600000	      3.26312597050741400000	     -1.77707277997920050000	    -13.73325583675944400000	      1.04864095053328300000	     -0.00000000000003001080	     -0.00000000000000805108	    -10.41111546308633600000	     -4.65443295506523570000	      8.64383892585194150000	     -0.80875137381160211000	    -30.00428087944589400000	     20.95200957124255600000	    126.76927597846723000000	     77.31219487933110200000	      0.00000000000002189181	      0.00000000000000525994	    -52.55427205213978000000	    -30.72195463135378900000	    -25.17225483259887000000	    130.02117131808305000000	     84.84380233407856100000	      0.00000000000002232668	     -0.00000000000000342345
      1.69819999999999990000	     -2.45970466881366660000	      1.62728909771733350000	     -0.88720785395544621000	      0.76049040100847953000	      0.98571870127536521000	     -0.35705652342368382000	    -18.53861667821985300000	      1.22357609643149100000	     -0.34010628475328636000	    -60.84801057629978500000	    -17.97640689333488600000	      0.00000000000000105184	      0.00000000000000941369	     29.01101704490466900000	      3.27505263912864390000	     -1.80884353281699780000	    -13.66115863117132700000	      0.87255649808262437000	     -0.00000000000003014855	     -0.00000000000000808293	    -10.53747848215586000000	     -4.65521507125511210000	      8.50634582008635930000	     -0.92680772223824459000	    -30.01312092905127600000	     20.95077578833404900000	    126.61513398732082000000	     77.20897814679959500000	      0.00000000000002205730	      0.00000000000000529313	    -52.43262886062650800000	    -30.86103005662061700000	    -25.31239142629480200000	    130.10180617927199000000	     84.68815440290198600000	      0.00000000000002242255	     -0.00000000000000344724
